<svg xmlns="http://www.w3.org/2000/svg" width="64" height="64" viewBox="0 0 24 24" fill="none" stroke="#0f5ba7" stroke-width="1.5" stroke-linecap="round" stroke-linejoin="round">
  <!-- Roof structure -->
  <path d="M2 10l10-8 10 8" stroke-width="2" />
  <!-- Tile rows (wavy overlapping pattern) -->
  <path d="M4 12c2 0 2-1 4-1s2 1 4 1 2-1 4-1 2 1 4 1" />
  <path d="M4 15c2 0 2-1 4-1s2 1 4 1 2-1 4-1 2 1 4 1" />
  <path d="M4 18c2 0 2-1 4-1s2 1 4 1 2-1 4-1 2 1 4 1" />
  <path d="M4 21c2 0 2-1 4-1s2 1 4 1 2-1 4-1 2 1 4 1" />
</svg>
